<svg xmlns="http://www.w3.org/2000/svg" viewBox="0 0 24 24"><path fill="none" d="M0 0h24v24H0z"/><path d="M10.46 19a4.59 4.59 0 01-6.37 1.15 4.63 4.63 0 012.49-8.38v1.43a3.17 3.17 0 00-2.36 1.36A3.13 3.13 0 005 18.91a3.11 3.11 0 004.31-.84 3.33 3.33 0 00.56-1.44v-1h5.58l.07-.11a1.88 1.88 0 11.67 2.59 1.77 1.77 0 01-.83-1h-4.07a5 5 0 01-.83 1.89m7.28-7.14a4.55 4.55 0 11-1.12 9 4.63 4.63 0 01-3.43-2.21l1.24-.65a3.22 3.22 0 002.32 1.45 3.05 3.05 0 10.75-6.06 3.39 3.39 0 00-1.53.18l-.85.44-2.58-4.81h-.22a1.88 1.88 0 11.13-3.76 1.93 1.93 0 011.85 1.95 1.88 1.88 0 01-.46 1.15l1.9 3.51a4.75 4.75 0 012-.19M8.25 9.14a4.54 4.54 0 118.37-3.54 4.61 4.61 0 01-.2 4.07L15.18 9a3.17 3.17 0 00.09-2.73A3.05 3.05 0 109.65 8.6 3.21 3.21 0 0011 10.11l.39.21-3.07 5a1.09 1.09 0 01.1.19 1.88 1.88 0 11-2.56-.83 1.77 1.77 0 011.23-.17l2.31-3.77a4.41 4.41 0 01-1.15-1.6z"/></svg>