<svg xmlns="http://www.w3.org/2000/svg" viewBox="0 0 1574.03 893.25"><defs><style>.cls-1{fill:#1b264f}.cls-2{fill:#293763}.cls-3{fill:#3544b1}.cls-6{fill:#b0bed6}.cls-5{fill:#f5c1bc}.cls-8{fill:#fff}.cls-10{fill:#f2ebe6}</style></defs><g id="Lag_2" data-name="Lag 2"><g id="Lag_1-2" data-name="Lag 1"><path class="cls-1" d="M0 0h1574.03v893.22H0z"/><path class="cls-2" d="M1574 448.27l-1-1s-44.52-55.53-149.66 51.52-132.1 106-162.81 113.91-193.71 39-222.52 61.72-81.37 57.4-81.37 57.4l248.93 161.43H1574zM945.38 800.65s-24.33-71.31-70.39-109-89.39-42-136.4-93.15-61.14-60.74-95.59-100.81-76.74-64.14-110-82.82c-49.45-27.75-82.71 39.25-145 32.64-39.92-4.24-57.74-16.31-153.35-82.22-32.21-22.2-81.24-71.38-138.36-78.86-35.86-4.7-69.65 11.3-96.26 30.9v475.05l816.26 32.34z"/><path class="cls-3" d="M379.81 676.14C250.6 599.94 102.57 484 0 440.68v452.57h1237.64C1097.26 778.38 921 649.3 828.77 641c-168.1-15.06-267.84 141.94-448.96 35.14z"/><g id="Layer_38" data-name="Layer 38"><path class="cls-1" d="M1398.8 686.77l-2.51 12-1.22-11.08s8.42-14.09 14.73-21c5.36-5.84 4.76-21.58 4.76-21.58s-16.19 8.73-17.7 10.59-14.32 28.81-14.32 28.81 4.76-25.69 3.64-29.81c-2.68-9.88-14-20.52-14-20.52s-5.65 29.35-5.13 36.64c.82 11.4 8.81 29.94 12.68 39.37.82 2 2.21 2.75 4.84 3l10.5 1.21c3.64.34 3.64.34 7.61-3.15l1.52-10.08c1.56-4 2.22-6.33 4.63-9.68 4.89-6.78 11.8-11.18 14.1-13.35 14.68-13.85 8-22.2 8-22.2-28.42 20.22-32.13 30.83-32.13 30.83z"/><path class="cls-1" d="M1365.88 688.22c-1.68-2.26-6.13-10.45-7.53-12.8s-5.92-11.93-5.92-11.93-1.13 9.3-.93 13.49 2.3 17.08 5 20 6.46 8.77 9.58 9.64 15.16 6.62 17.16 3.78l-9.4-11.43zm30.66 25.48c8.26 1.56 14.92-6 18.26-7.2s14.67-18.84 14.67-18.84-10 2.43-15.83 4.2c-2.86.87-17.1 21.84-17.1 21.84z"/></g><g id="Layer_38-2" data-name="Layer 38"><path class="cls-3" d="M1463.44 699.72c-1.51 5.59 4.94 40.43 4.94 40.43S1451 703.6 1449 701.08s-24-14.36-24-14.36-.82 21.34 6.44 29.27c8.56 9.34 20 28.45 20 28.45l-1.65 15-3.41-16.22s-5-14.38-43.55-41.85c0 0-9.09 11.33 10.83 30.11 3.11 2.93 12.48 8.9 19.1 18.09 3.28 4.55 4.17 7.63 6.28 13.12l2.07 13.68c5.38 4.72 5.38 4.72 10.32 4.27l14.23-1.64c3.57-.33 5.45-1.36 6.56-4.06 5.25-12.78 16.08-37.92 17.19-53.38.71-9.88-6.95-49.67-6.95-49.67s-15.38 14.44-19.02 27.83z"/><path class="cls-3" d="M1501.17 727.85c-1.9 3.18-7.93 14.29-10.21 17.36l-10.82 14.55-12.73 15.49c2.7 3.85 19-3.94 23.26-5.12s9.3-9.14 13-13.07 6.56-21.43 6.82-27.11-1.27-18.28-1.27-18.28-6.16 13-8.05 16.18zm-74.96 22.29c-7.93-2.41-21.47-5.71-21.47-5.71s15.37 23.88 19.9 25.56 13.55 11.87 24.75 9.76c0 0-19.3-28.43-23.18-29.61z"/></g><g id="Layer_38-3" data-name="Layer 38"><path class="cls-1" d="M1318.11 805.33l-2.91 13.82-1.4-12.8s9.72-16.27 17-24.24c6.19-6.75 5.49-24.93 5.49-24.93s-18.7 10.08-20.45 12.23-16.54 33.29-16.54 33.29 5.5-29.69 4.2-34.44c-3.09-11.41-16.15-23.7-16.15-23.7s-6.53 33.9-5.93 42.31c1 13.18 10.18 34.6 14.65 45.48 1 2.31 2.55 3.19 5.59 3.47l12.12 1.39c4.21.39 4.21.39 8.8-3.64l1.76-11.65c1.8-4.68 2.55-7.3 5.35-11.17 5.64-7.84 13.62-12.92 16.28-15.42 17-16 9.22-25.65 9.22-25.65-32.8 23.4-37.08 35.65-37.08 35.65z"/><path class="cls-1" d="M1280.08 807c-1.94-2.62-7.08-12.08-8.7-14.79s-6.84-13.78-6.84-13.78-1.3 10.74-1.08 15.57 2.66 19.74 5.81 23.09 7.46 10.14 11.06 11.14 17.51 7.65 19.82 4.37l-10.85-13.2s-7.3-9.78-9.22-12.4zm35.42 29.44c9.54 1.8 17.23-6.88 21.09-8.32s17-21.77 17-21.77-11.53 2.81-18.29 4.86c-3.3 1-19.8 25.23-19.8 25.23z"/></g><path d="M124.12 455.57c58.23-16 61.55-74.06 81.09-97.84 24.28-29.57 40.62-22.54 44.5-59.6 8.75-83.52-23.08-67.63-67-94.95-56.07-34.94-66 21.14-97.34-9C48.83 158.91 20.74 153.54 0 161.84v241.24c17.72.91 34.48 2 44.13 9.38 24.03 18.33 32.32 56.18 79.99 43.11z" style="isolation:isolate" opacity=".99" fill="#b0bed6"/><path class="cls-1" d="M134.32 347.07l-36.29-1.31.86-54.93 38.76-38.97-18.12.88-32.08 29.63-9.58-36.22-42.54-29.28-7.99 9.35 39.08 31.15 15.46 48.07-3.91 64.6 15.74 107.35-20.85 73.65 37.93.34 3.43-80.63-8.11-50.36-11.55-55.48 53.11-4.28 67.72-44.15-6.09-3.41-74.98 34z"/><path class="cls-1" d="M30.3 303.86l-5.45 5.65 22.24 22.78 32.23 15.5.94-15.5-24.93-10.68-25.03-17.75zm83.73-28.25l33.03 16.24 6.77-4.81-31.11-20.17-8.69 8.74zM85.29 415.73l-4.11-23.85-24-2.42-29.84-16.56L0 377.6v7.41l24.14-.15 61.15 30.87zM58.01 232.48l12.07 8.23 18.08-32.78h-7.9l-22.25 24.55zM185.6 335.9l-11.35 7.4 26.9.32-1.65-4.03-13.9-3.69z"/><path class="cls-3" d="M17.94 310.71a12.48 12.48 0 016.91-1.19l1.25-2.34s-16.48-6.83-20.17-7.65c-1.23-.27-3.4-.6-5.93-.88v15.89l.53.07s13.76-2.15 17.41-3.9z"/><path class="cls-2" d="M219.89 266.87a64.86 64.86 0 00-7.36 11.29c-2.39 5.22-5.41 10.24-5.41 10.24s.51 13.87 1.81 17.69a12.47 12.47 0 01.38 7l2.7 1.52s8.24-15.49 9.52-19 1.95-12.3 1.14-17.37a95.42 95.42 0 00-2.78-11.37zm-200.21-84.8a129.15 129.15 0 00-12.1-8s-1 8.23.7 13.69 7.18 15.94 7.18 15.94 9.69 10 13.22 11.95a12.45 12.45 0 014.94 5l1.69-3.74s-2.93-13.94-4.37-17.44-7.27-14.16-11.26-17.4zm38.19 102.71a129.81 129.81 0 00-13.74-4.62s1.14 8.21 4.22 13 11 13.56 11 13.56 11.94 7.16 15.86 8.15a11.32 11.32 0 016 4.12l.23-5.55s-6-11.81-8.27-14.82-10.61-11.74-15.3-13.84z"/><path class="cls-3" d="M48.88 177.82s-5.3 3.66-7.59 7.48-5.55 12.37-5.55 12.37-.79 10.74-.11 13.79a9.59 9.59 0 01-.31 5.41l1.08.76s8.54-10.63 9.82-13.23 4.44-11.5 4.25-15.47a101.72 101.72 0 00-1.59-11.11zm13.24 182.01a105.73 105.73 0 00-8.23-7.65s-1.83 6.17-1.2 10.57 3.45 13.1 3.45 13.1 6.14 8.86 8.59 10.81a8.2 8.2 0 012.94 3.86l2.09.21s-.57-13.33-1.23-16.19-3.77-11.75-6.41-14.71zm65.63-69.62s-6.54-8.58-9.06-10.42a12.52 12.52 0 01-3.73-5.11l-.92 1s.59 13.57 1.38 16.39 4.27 11.56 7 14.41a106.85 106.85 0 008.54 7.3s1.55-6.24.76-10.62-3.97-12.95-3.97-12.95zm109.15 7.36l-24.91 17 3.26 1.82s7.43-7.2 15.7-9.44 32.41-4.83 43.82-8.06 24.3-13.55 30.06-21.61a150.7 150.7 0 0111.36-14 122.23 122.23 0 00-29.44 5.25c-15.9 4.93-49.85 29.04-49.85 29.04zm39.22 48.12s-11.12-3.39-20.44-5.19-38.35 1.23-38.35 1.23l-17.83-2.14 1.65 4c8.74 1.14 32.73 12.83 38.33 15s33.91 2.06 33.91 2.06 13.94-4.19 14.27-7-11.54-7.96-11.54-7.96z"/><path class="cls-2" d="M276.12 345.69s-3.51 7.71-13.78 7.71c-27.91 0-53.55-7.71-53.55-7.71s27.55 13.65 39.45 14.19c0 0 21.87 1.73 23.94 1.65s15.4-4 15.47-7.87-11.53-7.97-11.53-7.97z"/><path class="cls-3" d="M35.94 310.68l.34-3.1-24.6-22.86A85.93 85.93 0 000 275.48v18.21c2.45.26 4.52.5 5.88.75 6.12 1.1 19.96 4.07 30.06 16.24z"/><path class="cls-2" d="M35.94 310.68l.34-3.1-24.6-22.86s-.86-.85-2.4-2.19c0 0-4.33 1-9.28 1.57v9.59c2.45.26 4.52.5 5.88.75 6.12 1.1 19.96 4.07 30.06 16.24z"/><path class="cls-3" d="M158.07 203.09c-12.73 9.09-20.76 22.91-20.76 22.91l-17.76 26.74 5-2c6.55-14.38 15.34-14.16 20.93-16.81S170 225 176.25 221.21s17.75-12.82 19.08-14.51 6.77-16.81 6.77-16.81c-13.1-7.04-31.3 4.11-44.03 13.2z"/><path class="cls-2" d="M185.59 205.17c-6.36 4.84-24 14.13-30.66 15.93a88.63 88.63 0 01-15.93 2.17 57.163 57.163 0 00-1.75 2.73l-17.76 26.74 5.79-.26c6.56-14.38 14.52-15.94 20.11-18.59S170 225 176.25 221.21s17.75-12.82 19.08-14.51 6.77-16.81 6.77-16.81-10.1 10.45-16.51 15.28z"/><path class="cls-5" d="M148 237.75c-5.13-1.13-15.88-2.71-19.62 4.66s-10.83 19.53 10.33 24.9c0 0 7.11-2 10.34-3.39s8.19-6.72 8.89-11.52-4.86-13.52-9.94-14.65z"/><path class="cls-1" d="M136.75 218.76c-2.12-1.06-6.92-3.65-6.92-3.65s3.63 15 11.42 21.53l6.7 1.11s8.51-8.93 9.43-12.57a105.8 105.8 0 001.62-11.07L144.57 229c-3.27-5.28-1-6.81-7.82-10.24z"/><g id="Layer_65" data-name="Layer 65"><path class="cls-5" d="M35.2 219.47s.23-3-.81-4.65-5 1.7-5 1.7-2.41-.66-7 2S16.31 231.23 14 236s3.34 12 5 14.74 3.58 4.6 3.87 7 3.8 1 3.8 1l2.05-3.06s6.59-3.2 9.38-7.35 5.8-9.1 4.42-17a19.14 19.14 0 00-7.32-11.86z"/><path class="cls-1" d="M25.16 246.53l4.13 3.19 1.47-4.23-3.62-2.37-1.98 3.41z"/></g><path class="cls-3" d="M96.71 354.3l-7.73-4.38 5 9.71-7.24-.24 11.16 7.85 11.23-5.74-12.4-14.35-.02 7.15z"/><path class="cls-5" d="M125.56 369.38l-14.19-9-6.92 1.79s-9.12 5.15-10.13 8.3 2.52 17.81 2.52 17.81 9.23 13.4 14.34 16.23 10.25 1.61 14.84-.48 8.88-12.33 8.88-12.33c-.55-2.83-1-6.19-1.32-6.72z"/><path class="cls-1" d="M99.54 373.22l-.27 6.52 6 .19-.52-6.92-5.21.21zm2.32 11.54l.4 4.09 3.3.89-.11-4.61-3.59-.37zm7.07-6.1l.37 5.58 4.71.14-1.5-4.62-3.58-1.1zm-.62 9.94l-.1 6.84 5.77.07-.94-6.41-4.73-.5zm11.03 6.13l3.76.34.34-6.47-5.48 1.75 1.38 4.38zm-2.74 3.66l.37 3.81 2.94.23-.24-3.43-3.07-.61zm-10.95-28.29l3.86 4.41 2.27-6.18-5.72-3.6-.41 5.37zm9.49.64l4.37 3.64 2.73-4.05-4.48-2.93-2.62 3.34zm7.75 6.24l3.02 2.26.97-2.6-2.53-2.21-1.46 2.55zm-6.95 2.1l2.37 3.2 2.15-3.18-3.54-2.9-.98 2.88zm5.98 4.81l3.82 3.67 2.7-3.85-4.6-3.19-1.92 3.37zm3.44 9.09l2.16 1.8 1.25-2.06-2.36-2.06-1.05 2.32z"/><path class="cls-5" d="M231.53 304.76c.9-4.71-1.39-9.24-5.1-12.86s-5.63 1.1-5.63 1.1-.3 3.9-.68 6.07-4 6.61-10.54 12.41-6.61 9.78-6.69 14.4 6.67 10.58 16.66 12.5c14.46 2.77 14.58-15.08 14.07-18.88s-2.98-10.03-2.09-14.74z"/><path class="cls-1" d="M226.9 283.77l-2.06-1.06-3.58 5.91 1.77 7.8 4.11-.18-2.29-6.43 2.05-6.04z"/><path class="cls-2" d="M21.39 408.63a128.66 128.66 0 00-10.55 9.91s7.81 2.85 13.55 2.42 17.2-3.33 17.2-3.33 12-7.13 14.68-10.11a11.36 11.36 0 016.49-3.38L58 401.33s-13.27-.3-17 .31-15.54 3.85-19.61 6.99z"/><g id="Layer_38-4" data-name="Layer 38"><path class="cls-1" d="M542.08 751.37l4.5 21.4 2.17-19.77s-15-25.19-26.34-37.51c-9.58-10.46-8.5-38.6-8.5-38.6s28.94 15.6 31.64 18.93 25.62 51.53 25.62 51.53-8.51-45.95-6.52-53.31c4.8-17.66 25-36.69 25-36.69s10.1 52.48 9.17 65.51c-1.47 20.39-15.75 53.54-22.68 70.39-1.46 3.58-3.94 4.93-8.64 5.37l-18.78 2.16c-6.51.59-6.51.59-13.61-5.64l-2.72-18c-2.79-7.24-4-11.31-8.28-17.3-8.74-12.12-21.09-20-25.2-23.87-26.27-24.77-14.29-39.7-14.29-39.7 50.84 36.14 57.46 55.1 57.46 55.1z"/><path class="cls-1" d="M600.94 754c3-4 11-18.7 13.47-22.89S625 709.75 625 709.75s2 16.62 1.67 24.11-4.12 30.55-9 35.74-11.55 15.69-17.12 17.24-27.11 11.84-30.68 6.76l16.79-20.43zm-54.82 45.52c-14.77 2.79-26.67-10.64-32.64-12.86S487.24 753 487.24 753s17.85 4.35 28.31 7.53c5.11 1.47 30.57 38.99 30.57 38.99z"/></g><path class="cls-6" d="M459.93 540.23l-7.61-2.96-81.69-2.36 11.76 2.36 77.54 2.96z"/><path class="cls-2" d="M102.75 598.83l9.02 36.1 3.87 30.95 1.29 14.18 14.89 9.5-4.98-55.79-10.49-26.92-13.6-8.02z"/><path class="cls-1" d="M244 781.28s6.15 8.39 15.88 8.39 30.54-8.39 30.54-8.39V517.59l-12.12 3a54.51 54.51 0 01-17.3 1.51l-11.36-.84z"/><path class="cls-1" d="M116.35 606.85l10.49 26.92 2.54 28.41 2.44 27.38 294.73-100.53 33.38-48.8-77.54-2.96-266.04 69.58z"/><path class="cls-6" d="M249.68 521.26A14 14 0 01253 515c2.58-2.58 19.34-3.87 23.21-3.87a30.75 30.75 0 0111.6 2.58 4.58 4.58 0 012.58 3.87s-14.18 5.16-18.05 5.16-11.13 1.29-15.24 0a34.44 34.44 0 00-7.42-1.48z"/><path d="M149.22 638c-1-15.42 11.18-31.58 27.12-36.09S206 606.23 207 621.66s-11.16 31.55-27.08 36.07-29.67-4.29-30.66-19.71zm28.89 1.54a30.27 30.27 0 01-6.71 1.31 3.94 3.94 0 01-3.83-1.79q-1.11-1.9-1.38-6.47a43.25 43.25 0 010-4.83c.09-1.59.2-2.9.32-4l.13-1a.21.21 0 000-.08.45.45 0 00-.52-.43l-3.76.49h-.08a.78.78 0 00-.54.6c-.05.25-.08.43-.15 1a61.93 61.93 0 00-.4 3.78 47.77 47.77 0 00-.11 5.06 26.24 26.24 0 00.22 3.46 14 14 0 002.1 6.86 6.57 6.57 0 005.31 2.51 32.65 32.65 0 0010-1.65l.53-.15a37.56 37.56 0 009.87-4 11.93 11.93 0 004.81-5.38 18.51 18.51 0 001.16-7.78 23.21 23.21 0 00-.22-3.46 42.07 42.07 0 00-.73-4.82c-.32-1.43-.58-2.4-.86-3.43-.15-.51-.19-.67-.27-.89a.46.46 0 00-.6-.27h-.1l-3.68 1.62a.75.75 0 00-.46.7.28.28 0 000 .09l.26.93q.38 1.43.81 3.63a39.56 39.56 0 01.6 4.66 18.08 18.08 0 01-.52 7 7 7 0 01-3.43 3.87 33.7 33.7 0 01-6.63 2.47z" fill="#f9f7f4"/><path class="cls-8" d="M377.83 577.79c-.42-6.7 1.26-12 9.25-14.24s10.28 1.87 10.71 8.57-1.23 12-9.23 14.24-10.3-1.87-10.73-8.57zm14.9-4.23c-.29-4.66-1.09-7.13-5.37-5.92s-4.73 4.05-4.44 8.7 1.09 7.14 5.38 5.92 4.7-4.06 4.43-8.7zm-152.67 54.06a.52.52 0 00.6.17l1.87-.54a.86.86 0 00.63-.83l-1.3-20.42a.52.52 0 00-.69-.49l-3.74 1.06a.88.88 0 00-.63.84l1 16.27a13.21 13.21 0 01-5.13 2.74c-2.39.68-3.62 0-3.76-2.21l-.91-14.33a.53.53 0 00-.7-.49l-3.74 1.06a.86.86 0 00-.58.85l.92 14.7c.27 4.19 2.47 6.36 8.19 4.74a17 17 0 007.14-4.34l.75 1.25zm41.03-26.95c-.26-4.14-2.55-6.32-7.92-4.8a16.72 16.72 0 00-7.06 4.21c-1-1.08-2.89-1.39-5.91-.53a15.57 15.57 0 00-6.61 4.18l-.74-1.26a.59.59 0 00-.62-.15l-1.87.53a.88.88 0 00-.63.84l1.27 20.46a.51.51 0 00.71.45l3.74-1.06a.86.86 0 00.58-.82l-1-16.2a11.76 11.76 0 014.67-2.64c2-.57 3.24-.19 3.37 1.88l.94 14.72a.52.52 0 00.71.46l3.74-1.06a.88.88 0 00.63-.84l-1-16.21a11.36 11.36 0 014.63-2.63c2-.56 3.25-.19 3.38 1.88l.94 14.71a.52.52 0 00.71.46l3.74-1.06a.86.86 0 00.63-.83zM293.47 611a11.17 11.17 0 007.44.19c6.58-1.87 8.72-6.82 8.27-14s-3.15-10.72-9.73-8.85a15 15 0 00-5.92 3.41l-.42-6.58a.51.51 0 00-.69-.47l-3.74 1.06a.86.86 0 00-.58.82l1.69 26.54a.52.52 0 00.71.46l1.87-.53a.82.82 0 00.56-.5zm6-3.62a9.15 9.15 0 01-4.94.12l-.76-12a12.39 12.39 0 014.77-2.67c4.44-1.26 5.27 1.85 5.53 5.86s-.16 7.44-4.59 8.7zm27.9-22.52a12.3 12.3 0 00-1.76.38 14.14 14.14 0 00-5.71 3l1 16.16a.86.86 0 01-.58.82l-3.74 1.06a.52.52 0 01-.72-.45l-1.3-20.47a.87.87 0 01.6-.86l1.87-.53a.56.56 0 01.61.16l.75 1.29a15.06 15.06 0 017-4.28 10.08 10.08 0 011.77-.35c.35-.1.66.36.68.71l.17 2.6a.87.87 0 01-.62.84h-.1m13.49 4.2c-2.22.9-3.5 2.09-3.35 4.37.1 1.65.95 3 3.66 2.24a10.84 10.84 0 004.73-2.79l-.36-5.66zm6.48 6.63a14.36 14.36 0 01-6.65 4.19c-5.8 1.65-8-1.28-8.2-4.76-.3-4.71 2.72-7.61 7.79-9.44l5-1.82-.07-1.09c-.14-2.21-1.28-2.78-4.61-1.84a23.61 23.61 0 00-6.08 2.74l-.21.06a.52.52 0 01-.69-.47l-.18-2.87a.86.86 0 01.4-.73 26.4 26.4 0 016.87-3.06c7.39-2.09 9.29.55 9.58 5.17l.89 13.9a.88.88 0 01-.64.8l-1.87.53a.53.53 0 01-.6-.17zm25.47-10.02a.66.66 0 01.2-.06.52.52 0 01.71.45l.19 2.88a.84.84 0 01-.38.72 20.05 20.05 0 01-5.73 2.56c-8 2.26-10.72-1.66-11.15-8.44s1.71-12.1 9.7-14.36a16.33 16.33 0 015.81-.76.48.48 0 01.45.48l.19 2.88a.88.88 0 01-.62.84l-.22.06a16.36 16.36 0 00-5 .69c-4.37 1.24-5.43 4.48-5.16 8.7s1.7 6.73 6.06 5.5a19.23 19.23 0 004.95-2.14"/><path class="cls-6" d="M116.35 606.85l-13.6-8.02 267.88-63.92 11.76 2.36-266.04 69.58z"/><g id="Layer_38-5" data-name="Layer 38"><path class="cls-2" d="M316.05 717.6c1.51 5.58-4.94 40.43-4.94 40.43s17.37-36.55 19.42-39.08 24-14.35 24-14.35.83 21.33-6.44 29.26c-8.56 9.35-20 28.45-20 28.45l1.65 15 3.41-16.22s5-14.38 43.56-41.84c0 0 9.08 11.32-10.83 30.1-3.12 2.94-12.49 8.91-19.11 18.1-3.28 4.55-4.17 7.63-6.28 13.12l-2.06 13.67c-5.39 4.73-5.39 4.73-10.33 4.27l-14.23-1.63c-3.57-.33-5.45-1.36-6.56-4.07-5.25-12.77-16.08-37.91-17.19-53.38-.71-9.88 6.95-49.67 6.95-49.67s15.34 14.45 18.98 27.84z"/><path class="cls-2" d="M278.32 745.73c1.9 3.18 7.93 14.29 10.21 17.35s10.82 14.56 10.82 14.56l12.74 15.49c-2.71 3.85-19-4-23.27-5.12s-9.3-9.14-13-13.08-6.55-21.43-6.82-27.1 1.27-18.28 1.27-18.28 6.16 13 8.05 16.18zM353.28 768c7.93-2.41 21.47-5.71 21.47-5.71s-15.37 23.87-19.9 25.56-13.55 11.87-24.75 9.75c0 .02 19.31-28.41 23.18-29.6z"/></g><g id="Layer_38-6" data-name="Layer 38"><path class="cls-2" d="M680.43 777.76c1.19 4.37-3.86 31.63-3.86 31.63s13.59-28.6 15.2-30.57 18.77-11.24 18.77-11.24.64 16.7-5 22.9c-6.7 7.32-15.63 22.26-15.63 22.26l1.29 11.76 2.67-12.69s3.93-11.26 34.08-32.75c0 0 7.1 8.86-8.48 23.56-2.44 2.3-9.77 7-14.95 14.16-2.56 3.56-3.26 6-4.91 10.27L698 837.74c-4.21 3.7-4.21 3.7-8.07 3.35l-11.14-1.28c-2.8-.26-4.26-1.07-5.13-3.19-4.11-10-12.59-29.66-13.46-41.76-.55-7.73 5.45-38.87 5.45-38.87s11.94 11.29 14.78 21.77z"/><path class="cls-2" d="M650.92 799.77c1.48 2.48 6.2 11.18 8 13.58l8.47 11.39 10 12.12c-2.11 3-14.9-3.09-18.2-4s-7.27-7.15-10.16-10.23-5.12-16.77-5.33-21.21 1-14.3 1-14.3 4.73 10.16 6.22 12.65zm58.65 17.44c6.21-1.89 16.8-4.47 16.8-4.47s-12 18.68-15.57 20-10.61 9.29-19.37 7.63c0 0 15.11-22.24 18.14-23.16z"/></g><path class="cls-3" d="M1228.59 277.61l13.65-3.19h23.35l-11.2 3.19h-25.8z"/><path d="M1254.39 277.61l-1.62-41.17m-21.4 41.53l1.89-41.62m27.15-1.63l3.4 41.3" stroke-width="3" stroke="#3544b1" stroke-miterlimit="10" fill="#fff"/><path class="cls-2" d="M1213.15 95.51a43.44 43.44 0 00-6.86 2.84c-23.13 11.47-39.83 36.12-34.9 59 5.23 24.32 8.37 31.64 16 45.84 7.24 13.5 43.26 50.48 43.26 50.48h33.55s45.88-44.66 52.12-58.25 15-39.29 10.4-56.31-13.52-39.62-33.28-44.65c-38.25-9.7-70.68-1.8-80.29 1.05zm15.44 182.1v20.43h28.83l-3.03-20.43h-25.8z"/><path class="cls-3" d="M1257.42 298.04l8.17-6.36v-17.26l-11.2 3.19 3.03 20.43z"/><path class="cls-2" d="M1316.13 195.38c6.26-13.59 15-39.29 10.44-56.31S1313 99.43 1293.16 94.4l-1.3-.32c-37.39-4.31-61.29 159.52-61.3 159.56h33.24s46.06-44.64 52.33-58.26z"/><path class="cls-3" d="M1329.69 139.27c-4.15-16.79-16.24-39.84-36.08-44.87a13 13 0 00-3.12-.4 13 13 0 013.12.4c19.84 5 31.93 28.08 36.08 44.87 4.23 17.11-6.55 42.66-13.12 56.11-10.76 22.07-52.32 58.26-52.32 58.26s41.55-36.19 52.32-58.26c6.57-13.45 17.35-39 13.12-56.11z"/><path class="cls-3" d="M1316.57 195.38c6.57-13.45 17.35-39 13.12-56.11-4.15-16.79-16.24-39.84-36.08-44.87a13 13 0 00-3.12-.4c-36.61-.22-59.93 159.64-59.93 159.64h33.69s41.56-36.19 52.32-58.26z"/><path class="cls-10" d="M1237.55 172a11.06 11.06 0 01-6.5-5.24A22.18 22.18 0 011229 157a35.3 35.3 0 010-4.6 65.66 65.66 0 01.54-6.56c.28-2 .53-3.37.81-4.78.14-.73.19-1 .27-1.27a.75.75 0 01.73-.58h.17l4.77.75a.74.74 0 01.62.74v.11l-.26 1.31c-.24 1.32-.48 3-.71 5a57.23 57.23 0 00-.4 6.28c0 4 .38 7 1.22 8.92a6.52 6.52 0 004.67 3.75 36.17 36.17 0 007.25.79c4.69-17.06 10.2-33.7 16.44-46.76a37.05 37.05 0 00-51.42 34.09 37.07 37.07 0 0029 36.21 675.55 675.55 0 014.17-17 33.47 33.47 0 01-9.32-1.4z"/><path class="cls-8" d="M1287.73 154.3a37.05 37.05 0 00-22.66-34.18c-6.24 13.06-11.75 29.7-16.44 46.76h2.81a36 36 0 008.54-.78 6.51 6.51 0 004.63-3.76c.86-1.93 1.26-4.9 1.22-8.91a57.55 57.55 0 00-.38-6.29c-.25-2-.49-3.7-.73-5l-.26-1.31v-.11a.74.74 0 01.63-.74l4.77-.75h.18a.75.75 0 01.73.58c.09.31.13.54.28 1.27.27 1.43.52 2.8.8 4.78a60.22 60.22 0 01.54 6.56 32.1 32.1 0 010 4.6 22.25 22.25 0 01-2.09 9.72 11.15 11.15 0 01-6.51 5.24q-4.57 1.61-12.77 1.56h-.69c-1.21 0-2.36 0-3.46-.06a617.22 617.22 0 00-4.17 17 37 37 0 0045-36.12zm.05 47.22c-3.86 0-4.81 2.34-4.81 5.68s1 5.68 4.81 5.68 4.81-2.34 4.81-5.68-.95-5.68-4.81-5.68zm0 9.33c-2 0-2.35-1.33-2.35-3.65s.3-3.65 2.35-3.65 2.36 1.33 2.36 3.65-.3 3.65-2.36 3.65z"/><path class="cls-10" d="M1216.33 212.48a.32.32 0 00.28.17h.9a.32.32 0 00.33-.32v-10.19a.32.32 0 00-.33-.32h-1.93a.32.32 0 00-.32.32v8.09a4.8 4.8 0 01-2.48.63c-1.14 0-1.7-.49-1.7-1.6v-7.12a.32.32 0 00-.32-.32H1209a.32.32 0 00-.32.32v7.32c0 2.08 1 3.45 3.73 3.45a6.32 6.32 0 003.52-1.13l.32.72zm17.8-7.48v7.31s.09.32.27.35h1.79a.32.32 0 00.3-.35V205c0-2.06-1-3.44-3.58-3.44a6.15 6.15 0 00-3.47 1.07 3.09 3.09 0 00-2.77-1.07 5.62 5.62 0 00-3.28 1.12l-.31-.71a.82.82 0 00-.28-.22h-.89a.32.32 0 00-.32.32v10.19a.32.32 0 00.32.32h1.78s.32-.09.26-.26v-8.07a4.72 4.72 0 012.33-.63c1 0 1.54.36 1.53 1.39v7.33c0 .18.33.35.33.35h1.86a.32.32 0 00.32-.32v-8.1a4.34 4.34 0 012.31-.63c.91-.04 1.5.36 1.5 1.36zm6.44-6.18a.32.32 0 00-.33.32v2.21c.19-.84.37-1.69.56-2.53z"/><path class="cls-8" d="M1240.57 212.65h.91a.3.3 0 00.28-.17l.34-.7a5.89 5.89 0 003.55 1.13c3.21 0 4.39-2.12 4.39-5.68s-1.19-5.67-4.39-5.67a5.65 5.65 0 00-2.94.85v-3.27a.32.32 0 00-.32-.32h-1.59c-.19.84-.37 1.69-.56 2.53v11a.32.32 0 00.33.3zm2-8.44a4.58 4.58 0 012.34-.62c2.13 0 2.45 1.62 2.45 3.62s-.32 3.62-2.44 3.62a4.69 4.69 0 01-2.34-.63zm16.36-2.67a5 5 0 00-.86-.08 5.52 5.52 0 00-3.45 1.15l-.32-.73a.33.33 0 00-.28-.17h-.91a.32.32 0 00-.32.32v10.3a.32.32 0 00.32.32h1.82a.32.32 0 00.33-.32v-8.08a5.23 5.23 0 012.77-.65 6.06 6.06 0 01.85.05.32.32 0 00.32-.32V202c.02-.19-.11-.46-.27-.46zm6.42.01a10.25 10.25 0 00-3.34.54.3.3 0 00-.21.3v1.44a.32.32 0 00.32.32h.1a9.29 9.29 0 013-.49c1.63 0 2.15.43 2.15 1.54v.53l-2.46.2c-2.48.19-4 1.19-4 3.53 0 1.74.94 3.47 3.78 3.47a5.34 5.34 0 003.31-1.12l.33.67a.3.3 0 00.28.17h.82a.32.32 0 00.32-.32v-6.92c-.02-2.3-.84-3.86-4.4-3.86zm2 8.62a4.08 4.08 0 01-2.32.72 1.47 1.47 0 01-1.67-1.61c0-1.14.65-1.54 1.72-1.67l2.27-.25zm13.17-8.17a7.92 7.92 0 00-2.77-.44c-3.85 0-5 2.3-5 5.69s1.19 5.68 5 5.68a7.77 7.77 0 002.78-.46.46.46 0 00.24-.29v-1.44a.38.38 0 00-.36-.32h-.12a7.57 7.57 0 01-2.41.36c-2.11 0-2.72-1.44-2.72-3.54s.61-3.54 2.72-3.54a7.3 7.3 0 012.41.36h.11a.41.41 0 00.37-.32v-1.45a.5.5 0 00-.25-.29z"/><path class="cls-3" d="M1360.97 351.59l7.75-1.81h13.26l-6.36 1.81h-14.65z"/><path d="M1375.62 351.59l-.92-23.37m-12.15 23.58l1.07-23.63m15.42-.93l1.92 23.45" stroke-width="2" stroke="#3544b1" stroke-miterlimit="10" fill="#fff"/><path class="cls-2" d="M1352.21 248.22a24.66 24.66 0 00-3.9 1.62c-13.13 6.5-22.6 20.5-19.8 33.51 3 13.8 4.75 18 9.07 26 4.11 7.66 24.56 28.65 24.56 28.65h19s26-25.35 29.59-33.06 8.5-22.3 5.9-32-7.67-22.5-18.89-25.35a89.08 89.08 0 00-45.53.63zm8.76 103.37v11.6h16.37l-1.72-11.6h-14.65z"/><path class="cls-3" d="M1377.34 363.19l4.64-3.61v-9.8l-6.36 1.81 1.72 11.6z"/><path class="cls-2" d="M1410.67 304.92c3.55-7.72 8.53-22.31 5.92-32s-7.7-22.5-19-25.36l-.74-.18C1375.66 245 1362.1 338 1362.09 338H1381s26.11-25.37 29.67-33.08z"/><path class="cls-3" d="M1418.36 273.06c-2.35-9.53-9.22-22.61-20.48-25.47a7.75 7.75 0 00-1.77-.23 7.75 7.75 0 011.77.23c11.26 2.86 18.13 15.94 20.48 25.47 2.4 9.72-3.72 24.22-7.44 31.86-6.11 12.52-29.71 33.07-29.71 33.07s23.6-20.55 29.71-33.07c3.72-7.64 9.84-22.14 7.44-31.86z"/><path class="cls-3" d="M1410.92 304.92c3.72-7.64 9.84-22.14 7.44-31.86-2.35-9.53-9.22-22.61-20.48-25.47a7.75 7.75 0 00-1.77-.23c-20.78-.12-34 90.63-34 90.63h19.12s23.58-20.55 29.69-33.07z"/><path class="cls-10" d="M1366.06 291.61a6.25 6.25 0 01-3.69-3 12.66 12.66 0 01-1.19-5.52 18.94 18.94 0 010-2.61 35.65 35.65 0 01.31-3.72c.15-1.14.3-1.92.45-2.72.08-.41.11-.54.16-.72a.42.42 0 01.41-.33h.1l2.7.43a.42.42 0 01.36.42v.06l-.15.75c-.13.75-.27 1.7-.4 2.85a32.58 32.58 0 00-.23 3.57 13.42 13.42 0 00.69 5.06 3.72 3.72 0 002.65 2.13 21.21 21.21 0 004.12.45c2.66-9.69 5.79-19.14 9.33-26.55a21 21 0 00-29.18 19.36 21 21 0 0016.5 20.58c.74-3.17 1.53-6.4 2.37-9.64a18.83 18.83 0 01-5.31-.85z"/><path class="cls-8" d="M1394.54 281.6a21 21 0 00-12.86-19.41c-3.54 7.41-6.67 16.86-9.33 26.55h1.6a20.86 20.86 0 004.85-.44 3.72 3.72 0 002.62-2.13 12.89 12.89 0 00.7-5.07 35.25 35.25 0 00-.22-3.56q-.21-1.72-.42-2.85l-.14-.75a.06.06 0 010-.06.4.4 0 01.35-.42l2.71-.43h.1a.44.44 0 01.42.33c0 .18.07.31.16.72.15.82.29 1.59.45 2.72a35.65 35.65 0 01.31 3.72 19 19 0 010 2.61 12.7 12.7 0 01-1.19 5.52 6.28 6.28 0 01-3.69 3 22.52 22.52 0 01-7.26.89h-2.39c-.84 3.24-1.63 6.47-2.37 9.64a21 21 0 0025.56-20.5zm.03 26.8c-2.19 0-2.73 1.33-2.73 3.22s.55 3.23 2.73 3.23 2.74-1.33 2.74-3.23-.54-3.22-2.74-3.22zm0 5.29c-1.17 0-1.34-.75-1.34-2.07s.17-2.07 1.34-2.07 1.33.76 1.33 2.07-.16 2.07-1.32 2.07z"/><path class="cls-10" d="M1354 314.62a.18.18 0 00.16.1h.51a.18.18 0 00.18-.19v-5.78a.18.18 0 00-.18-.18h-1.1a.18.18 0 00-.18.18v4.59a2.7 2.7 0 01-1.41.36c-.65 0-1-.28-1-.91v-4a.18.18 0 00-.18-.18h-1a.18.18 0 00-.18.18v4.16c0 1.18.55 1.95 2.11 1.95a3.5 3.5 0 002-.64l.18.41zm10.12-4.25v4.15s.05.18.15.2h1a.19.19 0 00.17-.2v-4.17a1.77 1.77 0 00-2-2 3.45 3.45 0 00-2 .61 1.77 1.77 0 00-1.58-.61 3.15 3.15 0 00-1.86.64l-.18-.41a.42.42 0 00-.15-.12h-.51a.18.18 0 00-.18.18v5.78a.19.19 0 00.18.19h1s.18-.05.15-.16v-4.58a2.75 2.75 0 011.32-.35c.56 0 .88.2.87.79v4.16c0 .1.19.2.19.2h1a.19.19 0 00.18-.19v-4.59a2.42 2.42 0 011.31-.36c.6.05.94.25.94.84zm3.65-3.5a.18.18 0 00-.18.18v1.25c.1-.48.21-.95.31-1.43z"/><path class="cls-8" d="M1367.77 314.72h.52a.18.18 0 00.16-.1l.19-.39a3.32 3.32 0 002 .63c1.82 0 2.49-1.2 2.49-3.22s-.67-3.22-2.49-3.22a3.19 3.19 0 00-1.67.49v-1.86a.18.18 0 00-.18-.18h-.91c-.1.48-.21.95-.31 1.43v6.23a.19.19 0 00.2.19zm1.16-4.79a2.58 2.58 0 011.33-.36c1.2 0 1.39.92 1.39 2.06s-.19 2.05-1.39 2.05a2.67 2.67 0 01-1.33-.35zm9.26-1.52a2.59 2.59 0 00-.48 0 3 3 0 00-2 .65l-.18-.42a.19.19 0 00-.16-.09h-.52a.18.18 0 00-.18.18v5.84a.19.19 0 00.18.19h1a.19.19 0 00.18-.19V310a3 3 0 011.58-.37 3.87 3.87 0 01.48 0 .18.18 0 00.18-.18v-.76c.09-.13.02-.28-.08-.28zm3.65.01a5.85 5.85 0 00-1.9.3.19.19 0 00-.12.17v.82a.19.19 0 00.19.18h.06a5.41 5.41 0 011.7-.28c.92 0 1.22.25 1.22.88v.3l-1.4.11c-1.41.11-2.28.68-2.28 2a1.88 1.88 0 002.14 2 3 3 0 001.88-.64l.19.38a.18.18 0 00.16.1h.46a.19.19 0 00.19-.19v-3.92c0-1.33-.47-2.21-2.49-2.21zm1.15 4.89a2.31 2.31 0 01-1.32.41.84.84 0 01-1-.92c0-.64.37-.87 1-.94l1.29-.15zm7.46-4.65a4.2 4.2 0 00-1.57-.25c-2.19 0-2.85 1.3-2.85 3.22s.67 3.23 2.85 3.23a4.48 4.48 0 001.58-.26.3.3 0 00.14-.17v-.82a.23.23 0 00-.21-.18h-.07a4.21 4.21 0 01-1.37.2c-1.19 0-1.54-.81-1.54-2s.35-2 1.54-2a4.51 4.51 0 011.37.21h.06a.24.24 0 00.22-.18v-.82a.26.26 0 00-.15-.18z"/></g></g></svg>