<svg version="1.1" id="Layer_1" xmlns="http://www.w3.org/2000/svg" x="0" y="0" viewBox="0 0 1025.1 908.1" xml:space="preserve"><path d="M167.4 354C167.6 163.2 322.5 8.7 513.2 9s345.2 155.1 345 345.9c-.3 190.6-154.9 345-345.4 345-190.9-.2-345.5-155-345.4-345.9zm338.4 118.3c-26.8.7-53.6-1.7-79.8-7.3-19.4-3.9-35.6-17-43.7-35-7.8-18-11.6-45.8-11.3-83.4.1-19.6 1.4-39.2 3.7-58.7 2.2-19 4.4-34.6 6.7-46.9l2.4-12.2v-1.1c0-3.4-2.4-6.3-5.8-6.9l-44.6-6.9h-1c-3.3 0-6.1 2.2-6.8 5.4-.8 2.9-1.2 5-2.5 11.8-2.5 13.1-4.9 25.9-7.5 44.6-2.8 20.3-4.4 40.7-5 61.1-1 14.2-1 28.5 0 42.8 1.1 37.8 7.6 68 19.5 90.6s32.1 38.8 60.6 48.8c28.5 9.9 68.1 14.8 119 14.6h6.4c50.9.2 90.6-4.6 119-14.6 28.4-9.9 48.6-26.2 60.6-48.8 11.9-22.6 18.4-52.8 19.5-90.6 1-14.2 1-28.5 0-42.8-.6-20.4-2.3-40.8-5-61.1-2.6-18.5-5-31.2-7.5-44.6-1.3-6.8-1.8-8.9-2.5-11.8-.7-3.2-3.6-5.4-6.8-5.4H692l-44.6 6.9c-3.4.6-5.9 3.5-5.8 6.9v1.1L644 241c2.3 12.4 4.5 28 6.8 46.9 2.3 19.5 3.5 39.1 3.6 58.7.4 37.5-3.4 65.3-11.4 83.3-7.9 18-24 31-43.2 35.1-26.2 5.6-53 8-79.8 7.2l-14.2.1zM814 848.2c0-31.1 8.9-53 44.9-53s44.9 21.8 44.9 53-8.9 53-44.9 53-44.9-21.9-44.9-53zm66.9 0c0-21.7-2.8-34-22-34s-22 12.3-22 34 2.8 34 22 34 22-12.4 22-34zm-688.9 49c.5.9 1.5 1.5 2.6 1.5h8.4c1.7 0 3-1.3 3-3v-95.1c0-1.7-1.3-3-3-3h-16.8c-1.7 0-3 1.3-3 3v75.5c-7.1 4-15.2 6.1-23.4 5.9-10.7 0-16-4.7-16-15v-66.4c0-1.7-1.3-3-3-3h-16.7c-1.7 0-3 1.3-3 3V869c0 19.4 9.1 32.1 34.8 32.1 11.7-.1 23.1-3.8 32.8-10.5l3 6.7.3-.1zm188.6-69.9c0-19.2-9.5-32.2-33.5-32.2-11.5 0-22.8 3.5-32.4 10-4.2-6.2-12.4-10-25.9-10-11 .2-21.7 3.9-30.5 10.5l-2.9-6.7c-.5-.9-1.5-1.5-2.6-1.5h-8.4c-1.7 0-3 1.3-3 3v95.1c0 1.7 1.3 3 3 3h16.7c1.7 0 3-1.3 3-3v-75.2c6.4-3.9 13.7-5.9 21.2-5.8 9.1 0 14.4 3.3 14.4 13v68.4c0 1.7 1.3 3 3 3h16.7c1.7 0 3-1.3 3-3v-75.5c6.4-4 13.7-6 21.2-5.9 8.9 0 14.4 3.3 14.4 13v68.4c0 1.7 1.3 3 3 3h16.7c1.7 0 3-1.3 3-3l-.1-68.6zm51.8 63.4c9.5 7 21 10.7 32.8 10.5 29.5 0 40.4-19.8 40.4-53s-10.9-53-40.4-53c-9.6.1-19 2.8-27.1 7.9v-30.6c0-1.7-1.3-3-3-3h-16.7c-1.7 0-3 1.3-3 3v123.2c0 1.7 1.3 3 3 3h8.4c1.1 0 2.1-.6 2.6-1.5l3-6.5zm27.4-8.7c-7.7 0-15.2-2-21.8-5.9v-55.8c6.6-3.9 14.2-5.9 21.8-5.8 19.8 0 22.9 15.2 22.9 33.8s-3 33.7-22.9 33.7zm129.5-66.9c-2.6-.4-5.2-.5-7.9-.5-9-.4-18 1.7-25.9 6.1v75.1c0 1.7-1.3 3-3 3h-16.7c-1.7 0-3-1.3-3-3v-95.1c0-1.7 1.3-3 3-3h8.4c1.1 0 2.1.6 2.6 1.5l2.9 6.7c9.2-7 20.5-10.7 32-10.5 2.7 0 5.3.2 7.9.7 1.5 0 2.8 2.5 2.8 4.1v12.1c0 1.7-1.3 3-3 3h-.2m58 36.7c-10 1.2-16 5-16 15.6 0 7.7 3.3 15 15.6 15 7.7.1 15.3-2.3 21.7-6.7v-26.2l-21.3 2.3zm26.8 38.7c-8.7 6.8-19.4 10.6-30.5 10.5-26.1 0-34.8-16.2-34.8-32.4 0-21.8 14.2-31.2 37-33l22.7-1.8v-5c0-10.3-4.8-14.3-19.8-14.3-9.4 0-18.7 1.5-27.6 4.6h-.9c-1.7 0-3-1.3-3-3v-13.4c0-1.3.8-2.4 1.9-2.8 10.1-3.4 20.6-5.1 31.2-5 33.2 0 40.8 14.6 40.8 36v64.5c0 1.7-1.3 3-3 3h-8.4c-1.1 0-2.1-.6-2.6-1.5l-3-6.4zm115.2-12.8h.9c1.7 0 3 1.3 3 3v13.4c0 1.2-.7 2.3-1.8 2.8-8.3 3-17.1 4.4-26 4.2-35.8 0-46.8-21.5-46.8-53s10.9-53 46.8-53c8.8-.2 17.6 1.2 25.9 4.1 1.1.5 1.9 1.6 1.9 2.8v13.5c0 1.7-1.3 3-3 3h-1c-7.3-2.3-14.9-3.5-22.5-3.3-19.6 0-25.3 13.4-25.3 33s5.7 33 25.3 33c7.6.1 15.3-1 22.5-3.3" fill="#283a97"/></svg>